<svg height='100px' width='100px'  fill="#38a169" xmlns="http://www.w3.org/2000/svg" data-name="Layer 1" viewBox="0 0 70 70" x="0px" y="0px"><title>Artboard 62</title><path d="M63.93,22.34c-2.37,2.69-6.07,3.83-10.4,3.21l-3.89-.66a1,1,0,0,0-.32,1.95l3.91.66a17.56,17.56,0,0,0,2.48.18,12.64,12.64,0,0,0,9.7-4,1,1,0,1,0-1.48-1.3Z"></path><path d="M23.89,45.67a1,1,0,0,0-.83-1.11l-5.66-.82c-4.56-.67-8.62.44-11.44,3.1a1,1,0,0,0,.68,1.7,1,1,0,0,0,.68-.27c2.37-2.24,5.85-3.16,9.8-2.58l5.66.82A1,1,0,0,0,23.89,45.67Z"></path><path d="M47.79,32.93l-2.2-15.3a13.52,13.52,0,0,1,.35-5.91l6.75,6.75a1,1,0,0,0,1.4,0,1,1,0,0,0,0-1.39L46.78,9.77a9.48,9.48,0,0,1,2-2.56,1,1,0,1,0-1.3-1.47,11.27,11.27,0,0,0-2.82,3.8.36.36,0,0,0,0,.11,14.81,14.81,0,0,0-1,8.26l2.21,15.3a13.27,13.27,0,0,1-.57,6.49L38.5,32.93a1,1,0,0,0-1.39,0,1,1,0,0,0,0,1.39l7.25,7.25a9.15,9.15,0,0,1-1.27,1.63c-2.37,2.36-5.9,3.34-9.91,2.76l-2.36-.47a1,1,0,1,0-.38,1.93l2.4.48a18.77,18.77,0,0,0,2.55.18,12.58,12.58,0,0,0,9.09-3.48,11.42,11.42,0,0,0,1.89-2.54,1,1,0,0,0,.2-.39A14.53,14.53,0,0,0,47.79,32.93Z"></path><path d="M26.52,37.43a16.09,16.09,0,0,1-.15-2.36l6.31,6.31a1,1,0,0,0,.7.29A1,1,0,0,0,34.07,40l-7.44-7.45a9.92,9.92,0,0,1,2.65-5.1c2.36-2.36,5.9-3.34,9.91-2.76l2.36.47a1,1,0,0,0,.38-1.93l-2.41-.48c-4.69-.68-8.82.49-11.63,3.3s-4,7-3.32,11.67L26.78,53a12.57,12.57,0,0,1-1,7.57l-6.86-6.86a1,1,0,0,0-1.39,0,1,1,0,0,0,0,1.39l7.16,7.16a9.11,9.11,0,0,1-1.09,1.15,1,1,0,0,0-.09,1.39,1,1,0,0,0,.74.34,1,1,0,0,0,.65-.25c3.17-2.78,4.58-7.22,3.87-12.17Z"></path></svg>